<?xml version="1.0" encoding="UTF-8"?>
<svg id="Layer_1" data-name="Layer 1" xmlns="http://www.w3.org/2000/svg" xmlns:xlink="http://www.w3.org/1999/xlink" viewBox="0 0 612 593">
  <defs>
    <style>
      .cls-1 {
        fill: url(#linear-gradient-3);
      }

      .cls-2 {
        fill: url(#linear-gradient-2);
      }

      .cls-3 {
        fill: url(#linear-gradient);
      }

      .cls-4 {
        fill: #2e87c8;
      }

      .cls-5, .cls-6 {
        fill: #fff;
      }

      .cls-6 {
        stroke: #c4a9a8;
        stroke-miterlimit: 10;
      }

      .cls-7 {
        fill: #aa88be;
      }

      .cls-8 {
        fill: #9b7eb9;
      }

      .cls-9 {
        fill: #ef7fb0;
      }
    </style>
    <linearGradient id="linear-gradient" x1="314.79" y1="64.53" x2="325.94" y2="775.17" gradientTransform="translate(-73.29 .92) scale(.74)" gradientUnits="userSpaceOnUse">
      <stop offset=".18" stop-color="#f38cb9"/>
      <stop offset=".63" stop-color="#7ea2d4"/>
      <stop offset=".85" stop-color="#4094d1"/>
      <stop offset="1" stop-color="#268fce"/>
    </linearGradient>
    <linearGradient id="linear-gradient-2" x1="709.04" y1="15.48" x2="707.45" y2="776.48" gradientTransform="translate(-73.29 .92) scale(.74)" gradientUnits="userSpaceOnUse">
      <stop offset=".2" stop-color="#f182b0"/>
      <stop offset=".52" stop-color="#a68ac0"/>
      <stop offset=".81" stop-color="#787fbd"/>
      <stop offset=".85" stop-color="#2c86c8"/>
      <stop offset="1" stop-color="#227dc1"/>
    </linearGradient>
    <linearGradient id="linear-gradient-3" x1="642.64" y1="274.85" x2="644.16" y2="463.85" gradientTransform="translate(-73.29 .92) scale(.74)" gradientUnits="userSpaceOnUse">
      <stop offset="0" stop-color="#ef7fb0"/>
      <stop offset="1" stop-color="#738ec8"/>
    </linearGradient>
  </defs>
  <path class="cls-3" d="M234.6,41.32c31.63-1.98,60.67,15.78,67.78,47.04l.74,417.13c-4.94,115.9-174.14,88.14-188.17-6.56-39.34-5.47-64.72-41.08-58.52-79.49-30.56-20.21-40.38-57.36-28.89-91.16.94-2.76,7.38-13.07,7.41-13.86.06-1.48-3.25-5.98-3.7-8.02-7.24-32.27,1.45-60.03,30.37-78.03-8.21-36.38,12.09-72.88,48.15-84.59-1.75-25.28,17.28-50.59,41.86-57.25,5.02-1.36,14.58-1.13,17.78-2.19,1.01-.33,9.73-14.39,12.22-17.14,12.5-13.78,34.15-24.71,52.97-25.89Z"/>
  <path class="cls-6" d="M113.64,502.74c-20.9-2.36-42.65-17.01-52.14-36.09-6.88-13.83-7.85-27.34-7.21-42.34.04-.97.03-1.74-.41-2.63-.49-.99-9.15-7.02-10.94-8.77-20.35-19.84-26.09-49.65-18.44-76.76,1.23-4.35,7.51-18.41,7.59-21,.05-1.63-2.41-7.21-2.94-9.68-6.96-32.3,3.47-60.08,31.14-77.54-6.02-34.41,11.51-77.85,48.92-82.71-1.25-22.65,7.62-43.07,27.36-54.35,9.45-5.4,21.26-9.09,32.07-7.55,17.21-34.38,65.69-55.62,101.24-38.79,17.72,8.38,33.41,25.42,34.36,46.11l.04,423.13c-3,52.14-47.49,81.23-96.58,72.68-41.54-7.24-89.01-37.78-94.08-83.68ZM83.62,220.05h13.93c13.87,0,33.2,13.84,40.14,25.73,9.88,16.94,4.09,34.08,26.1,42.27,5.73,2.13,15.07,1.83,16.15,9.58,1.8,12.94-9.77,14.48-19.53,12.18-11.23-2.64-26.71-14.25-32.48-24.34-7.13-12.47-3.42-28.78-17.17-37.58-24.02-15.37-55.35,5.22-60.07,31.53-2.88,16.02,1.36,19.8,6.19,33.04,2.93,8.04-4.44,15.34-7.5,22.91-11.45,28.33-2.9,55.72,23.2,71.14,4.23,2.5,16.34,6.65,18,10.76,3,7.42-5.11,17.58-12.99,16.61-1.4,24.93,22.67,49.1,47.49,44.71,7.89-1.4,19.11-11.98,25.44-2.21,2.14,3.31,3.22,8.68,2.05,12.52-1.71,5.62-11.32,7.38-15.03,9.96-.79.55-1.08.7-1.16,1.77-.29,4.26,5.31,16.52,7.63,20.54,24.23,41.93,114.68,64.67,132.77,6.65,6.72-21.54,3.11-59.84,3.35-83.67,1.15-115.97.72-232.06.82-348.26-7.16-43.66-59.73-38.44-84.01-11.82-8.88,9.73-11.3,30.96-8.1,43.38,2.56,9.94,11.03,16.95-1.04,25.25-5.97,4.1-9.28,2.55-13.45-2.91-8.64-11.3-8.66-29.12-8.64-42.79-23.85.45-38.39,20.85-32.78,44.32,2.49,10.43,12.51,22.75,22.08,27.25,6.8,3.2,13.5,1.54,16.87,9.62,1.84,4.41,1.58,6.76-1.03,10.72-7.01,10.66-16.96,5.66-25.98.64-13.42-7.46-25.17-18.77-31.55-33-22.26,6.78-34.14,30.84-29.69,53.49Z"/>
  <g>
    <path class="cls-2" d="M327.11,6.1c9.69-1.67,73.15-1.63,82.97,0,18.31,3.04,17.28,39.29,2.96,43.71-3.67,1.13-17.29-.08-18.15,1.85v24.45c31.83,8.55,62.68,21.51,89.27,41.11,1.42-2.22,12.94-14.9,12.96-15.93.02-.82-8.94-7.03-10.37-10.37-6.01-14.01,12.77-38.1,30-30,3.47,1.63,42.73,32,44.08,34.45,6.92,12.57-10.38,34.31-22.59,33.71-3.67-.18-10.66-5.54-11.85-5.19-1.01.3-11.23,14.63-12.96,16.67,95.26,94.97,102.26,245.76,16.3,349.66-42.29,51.12-113.53,90.36-180.39,94.45-8.76.54-32.84,2.9-35.19-7.78-1.11-5.05-1.11-80.89,0-85.93,2.31-10.47,20.55-11.7,22.97-.74,1.67,7.6-2,56.47.37,58.15,79.33-1.31,153.66-49.14,190.02-118.9,75.3-144.46-24.53-324.49-189.28-324.84-2.5.99,1.44,46.32-1.11,53.71-3.46,10.01-20.7,9.25-22.97-1.48-1.06-5.01-1.06-69.89,0-74.82,2.99-13.87,26.65-6.25,28.15-9.63v-20.74c-.86-1.94-14.48-.72-18.15-1.85-14.33-4.42-15.2-40.57,2.96-43.71Z"/>
    <g>
      <path class="cls-1" d="M481.2,195.75c10.06-1.71,18.54,8.87,13.7,18.15-34.47,35.8-78.45,66.04-112.97,101.12-10.56,10.73-5.67,8.24-10.74,19.63-9.77,21.96-40.42,26.44-54.82,6.67-17.66-24.25,5.62-57.86,34.45-49.26l130.38-96.3Z"/>
      <path class="cls-7" d="M500.46,311.32c2.75-.6,32.65-.59,35.56,0,10.89,2.19,10.39,19.28.74,21.48-2.37.54-33.86.54-36.3,0-10.46-2.31-10.37-19.2,0-21.48Z"/>
      <path class="cls-9" d="M430.83,141.67c7.23-1.82,13.28,3.63,12.22,10.74-.21,1.43-12.98,23.98-14.08,25.19-6.85,7.6-18.35,2.44-16.3-8.15.51-2.64,15.7-27.16,18.15-27.78Z"/>
      <path class="cls-4" d="M418.97,469.85c2.1-.2,4.17.48,5.93,1.48,1.57.9,15.56,25.07,15.93,27.04,1.45,7.64-4.73,13.35-12.22,11.48-3.81-.95-17.88-27.89-17.41-32.23.34-3.13,4.54-7.47,7.78-7.78Z"/>
      <path class="cls-9" d="M509.35,224.64c7.3-1.03,12.29,6.14,9.26,12.96-.66,1.49-26.02,16.39-27.78,16.67-7.69,1.22-13.15-5.98-10-12.96.85-1.9,26.15-16.33,28.52-16.67Z"/>
      <path class="cls-8" d="M480.46,407.62c.87-.18,4.3-.18,5.19,0,2.77.55,26.51,16.07,27.04,18.15,1.61,6.29-2.62,12.77-9.26,12.22-2.79-.23-27.48-15.99-28.52-18.89-1.51-4.22.78-10.49,5.56-11.48Z"/>
    </g>
  </g>
  <g>
    <path class="cls-5" d="M232.66,111.85c6.01-1.14,12.91,3.79,13.7,9.8.59,4.47-2.1,7.53-2.22,10.89-1,28.12,28.36,30.42,24.45,61.72-3.95,31.59-48.03,24.08-51.12,46.47-4,28.99,43.84,19.02,48.89,55.91,1.52,11.07-3.35,45.53-21.11,38.12-11.21-4.67-1.81-19.52-1.11-26.5,3.16-31.43-31.73-21.51-43.71-43.56-10.71-19.72-2.26-46.18,17.41-57,7.51-4.13,26.8-6.96,28.52-16.34,2.33-12.67-11.6-21.2-17.04-31.22-5.44-10.02-13.07-45.18,3.33-48.28Z"/>
    <path class="cls-5" d="M100.8,304.98c11-.48,10.63,11.28,14.45,17.79,12.4,21.18,43.45,11.32,49.63,23.23,8.6,16.55-18.99,21.23-28.52,27.95-9.29,6.55-14.51,24.47-27.41,17.43-14.91-8.14,6.81-30.82,15.93-35.21-15.17-3.23-39.67-29.11-34.08-44.29,1.11-3.02,6.88-6.76,10-6.9Z"/>
    <path class="cls-5" d="M151.17,411.71c13.94-1.98,12.45,12.64,18.15,19.97,13.55,17.41,50.01.38,68.9,26.14,5.45,7.43,11.87,25.24-1.85,27.95-12.52,2.48-11.73-8.77-16.67-14.88-12.03-14.87-46.34.8-66.67-23.96-6.22-7.57-18.49-32.85-1.85-35.21Z"/>
    <path class="cls-5" d="M202.29,346.36c19.01-3.87,10.56,19.07,11.48,27.23,1,8.84,10.6,19.86,18.89,22.87,8.97,3.26,25.55-.24,23.34,14.88-1.86,12.7-22.43,9.01-30.74,6.17-21.17-7.22-35.99-31.81-33.71-53.37.55-5.15,4.68-16.55,10.74-17.79Z"/>
    <path class="cls-5" d="M200.06,493.03c14.93-3.04,11.57,14.65,21.48,21.06,7.4,4.78,22.53,2.23,21.11,15.61-2.26,21.35-35.1,4.66-42.97-5.81-5.4-7.19-13.38-28.06.37-30.86Z"/>
  </g>
</svg>